<?xml version="1.0" encoding="utf-8" standalone="no"?>
<!DOCTYPE svg PUBLIC "-//W3C//DTD SVG 1.1//EN"
  "http://www.w3.org/Graphics/SVG/1.1/DTD/svg11.dtd">
<svg xmlns:xlink="http://www.w3.org/1999/xlink" width="572.4pt" height="402.48pt" viewBox="0 0 572.4 402.48" xmlns="http://www.w3.org/2000/svg" version="1.1">
 <metadata>
  <rdf:RDF xmlns:dc="http://purl.org/dc/elements/1.1/" xmlns:cc="http://creativecommons.org/ns#" xmlns:rdf="http://www.w3.org/1999/02/22-rdf-syntax-ns#">
   <cc:Work>
    <dc:type rdf:resource="http://purl.org/dc/dcmitype/StillImage"/>
    <dc:date>2026-05-25T14:28:26.863139</dc:date>
    <dc:format>image/svg+xml</dc:format>
    <dc:creator>
     <cc:Agent>
      <dc:title>Matplotlib v3.10.8, https://matplotlib.org/</dc:title>
     </cc:Agent>
    </dc:creator>
   </cc:Work>
  </rdf:RDF>
 </metadata>
 <defs>
  <style type="text/css">*{stroke-linejoin: round; stroke-linecap: butt}</style>
 </defs>
 <g id="figure_1">
  <g id="patch_1">
   <path d="M 0 402.48 
L 572.4 402.48 
L 572.4 -0 
L 0 -0 
z
" style="fill: #ffffff"/>
  </g>
  <g id="axes_1">
   <g id="patch_2">
    <path d="M 107.64 154.6704 
L 275.04 154.6704 
L 275.04 115.8624 
L 107.64 115.8624 
L 107.64 154.6704 
z
" clip-path="url(#p22f844518f)" style="fill: none; stroke: #000000; stroke-linejoin: miter"/>
   </g>
   <g id="patch_3">
    <path d="M 330.84 154.6704 
L 498.24 154.6704 
L 498.24 115.8624 
L 330.84 115.8624 
L 330.84 154.6704 
z
" clip-path="url(#p22f844518f)" style="fill: none; stroke-dasharray: 3.7,1.6; stroke-dashoffset: 0; stroke: #000000; stroke-linejoin: miter"/>
   </g>
   <g id="line2d_1">
    <path d="M 51.84 209.0016 
L 520.56 209.0016 
" clip-path="url(#p22f844518f)" style="fill: none; stroke: #000000; stroke-linecap: square"/>
   </g>
   <g id="line2d_2">
    <path d="M 51.84 216.7632 
L 51.84 201.24 
" clip-path="url(#p22f844518f)" style="fill: none; stroke: #000000; stroke-linecap: square"/>
   </g>
   <g id="line2d_3">
    <path d="M 520.56 216.7632 
L 520.56 201.24 
" clip-path="url(#p22f844518f)" style="fill: none; stroke: #000000; stroke-linecap: square"/>
   </g>
   <g id="patch_4">
    <path d="M 118.8 309.9024 
L 252.72 309.9024 
L 252.72 271.0944 
L 118.8 271.0944 
L 118.8 309.9024 
z
" clip-path="url(#p22f844518f)" style="fill: none; stroke: #000000; stroke-linejoin: miter"/>
   </g>
   <g id="patch_5">
    <path d="M 330.84 309.9024 
L 464.76 309.9024 
L 464.76 271.0944 
L 330.84 271.0944 
L 330.84 309.9024 
z
" clip-path="url(#p22f844518f)" style="fill: none; stroke: #000000; stroke-linejoin: miter"/>
   </g>
   <g id="text_1">
    <text style="font-size: 8px; font-family: 'WenQuanYi Zen Hei', 'DejaVu Sans', sans-serif; text-anchor: middle" x="51.84" y="230.483725" transform="rotate(-0 51.84 230.483725)">2023.04</text>
   </g>
   <g id="text_2">
    <text style="font-size: 8px; font-family: 'WenQuanYi Zen Hei', 'DejaVu Sans', sans-serif; text-anchor: middle" x="520.56" y="230.483725" transform="rotate(-0 520.56 230.483725)">2025.10</text>
   </g>
   <g id="text_3">
    <text style="font-weight: 700; font-size: 9px; font-family: 'WenQuanYi Zen Hei', 'DejaVu Sans', sans-serif; text-anchor: middle" x="286.2" y="231.199819" transform="rotate(-0 286.2 231.199819)">时间轴</text>
   </g>
   <g id="text_4">
    <text style="font-weight: 700; font-size: 9px; font-family: 'WenQuanYi Zen Hei', 'DejaVu Sans', sans-serif; text-anchor: middle" x="191.34" y="134.307787" transform="rotate(-0 191.34 134.307787)">时间窗口1</text>
   </g>
   <g id="text_5">
    <text style="font-size: 7px; font-family: 'WenQuanYi Zen Hei', 'DejaVu Sans', sans-serif; text-anchor: middle" x="191.34" y="149.030675" transform="rotate(-0 191.34 149.030675)">不重叠</text>
   </g>
   <g id="text_6">
    <text style="font-weight: 700; font-size: 9px; font-family: 'WenQuanYi Zen Hei', 'DejaVu Sans', sans-serif; text-anchor: middle" x="414.54" y="134.307787" transform="rotate(-0 414.54 134.307787)">时间窗口2</text>
   </g>
   <g id="text_7">
    <text style="font-size: 9px; font-family: 'WenQuanYi Zen Hei', 'DejaVu Sans', sans-serif" transform="translate(165.061406 289.057978)">嵌入向量1</text>
    <text style="font-size: 9px; font-family: 'WenQuanYi Zen Hei', 'DejaVu Sans', sans-serif" transform="translate(169.306172 297.957572)">emb_w1</text>
   </g>
   <g id="text_8">
    <text style="font-size: 9px; font-family: 'WenQuanYi Zen Hei', 'DejaVu Sans', sans-serif" transform="translate(377.101406 289.057978)">嵌入向量2</text>
    <text style="font-size: 9px; font-family: 'WenQuanYi Zen Hei', 'DejaVu Sans', sans-serif" transform="translate(381.346172 297.957572)">emb_w2</text>
   </g>
   <g id="patch_6">
    <path d="M 191.34 207.001984 
Q 191.34 181.837532 191.34 157.567507 
" style="fill: none; stroke: #000000; stroke-width: 0.8; stroke-linecap: round"/>
    <path d="M 189.34 161.567507 
L 191.34 157.567507 
L 193.34 161.567507 
" style="fill: none; stroke: #000000; stroke-width: 0.8; stroke-linecap: round"/>
   </g>
   <g id="patch_7">
    <path d="M 414.54 207.001984 
Q 414.54 181.837532 414.54 157.567507 
" style="fill: none; stroke: #000000; stroke-width: 0.8; stroke-linecap: round"/>
    <path d="M 412.54 161.567507 
L 414.54 157.567507 
L 416.54 161.567507 
" style="fill: none; stroke: #000000; stroke-width: 0.8; stroke-linecap: round"/>
   </g>
   <g id="patch_8">
    <path d="M 191.244128 156.670727 
Q 188.550013 212.882125 185.898718 268.200121 
" style="fill: none; stroke: #000000; stroke-width: 0.8; stroke-linecap: round"/>
    <path d="M 188.087918 264.300453 
L 185.898718 268.200121 
L 184.092504 264.10896 
" style="fill: none; stroke: #000000; stroke-width: 0.8; stroke-linecap: round"/>
   </g>
   <g id="patch_9">
    <path d="M 414.255449 156.649409 
Q 406.170092 212.881757 398.212032 268.228782 
" style="fill: none; stroke: #000000; stroke-width: 0.8; stroke-linecap: round"/>
    <path d="M 400.760958 264.554143 
L 398.212032 268.228782 
L 396.801676 263.984858 
" style="fill: none; stroke: #000000; stroke-width: 0.8; stroke-linecap: round"/>
   </g>
   <g id="patch_10">
    <path d="M 255.835854 290.4984 
Q 291.777669 290.4984 327.719484 290.4984 
" style="fill: none; stroke: #000000; stroke-linecap: round"/>
    <path d="M 259.835854 292.4984 
L 255.835854 290.4984 
L 259.835854 288.4984 
" style="fill: none; stroke: #000000; stroke-linecap: round"/>
    <path d="M 323.719484 288.4984 
L 327.719484 290.4984 
L 323.719484 292.4984 
" style="fill: none; stroke: #000000; stroke-linecap: round"/>
   </g>
   <g id="text_9">
    <text style="font-weight: 700; font-size: 8px; font-family: 'WenQuanYi Zen Hei', 'DejaVu Sans', sans-serif; text-anchor: middle" x="286.2" y="320.304" transform="rotate(-0 286.2 320.304)">时序对比损失</text>
   </g>
  </g>
 </g>
 <defs>
  <clipPath id="p22f844518f">
   <rect x="7.2" y="7.2" width="558" height="388.08"/>
  </clipPath>
 </defs>
</svg>
